{"glyphs":{":":{"x_min":0,"x_max":200,"ha":200,"o":"m 143 297 q 156 292 156 280 q 156 270 136 224 q 120 188 102 188 q 108 188 67 192 q 62 192 60 198 q 58 204 64 205 q 88 259 95 285 q 101 306 110 306 q 118 306 143 297 z m 76 97 q 88 93 88 81 q 88 70 69 24 q 54 -12 35 -12 q 42 -12 0 -8 q -6 -7 -7 -2 q -9 3 -2 5 q 10 35 28 85 q 33 105 43 105 q 51 105 76 97 z"},"$":{"x_min":0,"x_max":386,"ha":386,"o":"m 476 587 q 456 524 426 478 q 414 458 400 458 q 388 458 358 478 q 349 484 349 490 q 349 499 364 504 q 375 508 390 546 q 406 584 406 604 q 406 624 388 624 q 379 624 361 620 q 312 513 251 351 q 280 298 309 246 q 337 191 337 162 q 337 79 251 28 q 227 -10 187 -10 q 165 -10 137 -3 q 131 -25 128 -49 q 124 -82 128 -91 q 134 -104 121 -104 q 116 -104 111 -100 q 85 -79 85 -55 q 85 -45 89 -34 q 96 -11 102 9 q 50 30 19 58 q 0 75 0 91 q 0 99 16 134 q 24 152 31 152 q 38 152 43 133 q 51 103 122 72 q 157 185 199 306 q 137 424 137 479 q 137 543 219 601 q 227 607 235 607 q 248 607 248 596 q 248 589 241 583 q 201 545 203 498 q 205 451 230 394 q 273 513 314 606 q 295 597 283 597 q 268 597 268 607 q 268 616 282 623 q 300 632 332 644 q 349 683 372 728 q 384 752 403 752 q 405 752 422 749 q 433 747 433 739 q 433 732 425 728 q 412 721 397 693 q 392 683 381 662 q 384 663 388 665 q 400 669 407 669 q 418 669 437 642 q 467 628 470 626 q 480 619 480 608 q 480 601 476 587 z m 271 128 q 269 172 220 266 q 174 135 153 60 q 191 48 214 48 q 275 48 271 128 z"},"?":{"x_min":0,"x_max":467,"ha":467,"o":"m 474 578 q 474 531 397 418 q 330 319 254 240 q 258 241 283 250 q 304 258 308 258 q 322 258 322 244 q 322 234 309 230 q 229 202 198 174 q 188 165 180 165 q 165 165 149 210 q 148 213 148 215 q 148 224 176 247 q 249 307 319 402 q 395 505 400 563 q 405 612 354 612 q 340 612 326 606 q 219 561 141 470 q 134 462 134 452 q 134 446 137 437 q 139 428 139 424 q 139 412 126 412 q 116 412 105 425 q 73 464 73 478 q 73 491 90 508 q 204 623 304 659 q 328 667 344 667 q 372 667 403 625 q 429 621 449 609 q 474 595 474 578 z m 234 72 q 244 64 244 56 q 244 44 201 6 q 176 -16 161 -16 q 155 -16 109 6 q 105 7 103 11 q 101 15 103 17 q 104 20 110 19 q 135 41 174 81 q 185 95 192 95 q 202 95 234 72 z"},"<":{"x_min":0,"x_max":296,"ha":296,"o":"m 229 351 q 237 365 243 365 q 251 365 259 346 q 267 327 267 321 q 267 311 241 300 q 195 281 125 259 q 115 257 131 241 q 188 186 224 136 q 236 120 236 115 q 236 109 220 106 q 208 104 202 104 q 192 104 186 121 q 176 148 92 237 q 84 245 68 253 q 57 259 53 271 q 49 283 49 286 q 50 290 59 291 q 105 299 159 318 q 213 336 229 351 z"},"'":{"x_min":0,"x_max":160,"ha":160,"o":"m 198 611 q 201 577 175 503 q 150 431 137 431 q 135 431 133 432 q 108 444 104 469 q 104 479 109 479 q 134 558 143 643 q 145 662 146 666 q 147 673 153 675 q 158 676 188 638 q 198 625 198 611 z"},"=":{"x_min":0,"x_max":424,"ha":424,"o":"m 398 312 q 398 305 391 286 q 385 270 379 266 q 373 263 353 264 q 246 271 153 271 q 103 271 98 262 q 95 256 86 258 q 78 260 80 268 q 82 271 87 297 q 91 318 134 314 q 212 306 329 305 q 374 305 379 314 q 383 321 390 320 q 398 319 398 312 z m 378 207 q 378 205 371 186 q 364 168 359 164 q 353 158 333 159 q 226 166 133 166 q 83 166 78 157 q 75 151 66 153 q 58 155 60 163 q 62 169 67 197 q 69 211 86 212 q 87 212 114 209 q 192 201 309 200 q 354 200 359 209 q 363 216 370 215 q 378 214 378 207 z"},"a":{"x_min":0,"x_max":389,"ha":389,"o":"m 361 325 q 316 201 299 116 q 306 123 318 137 q 330 151 333 154 q 340 163 348 163 q 355 163 355 155 q 355 151 351 145 q 305 77 290 8 q 286 -12 277 -12 q 269 -12 246 4 q 233 13 231 19 q 229 24 231 40 q 251 164 282 246 q 240 177 167 94 q 103 21 74 1 q 54 -13 43 -13 q 34 -13 16 1 q -10 17 -10 44 q -10 49 -9 56 q 0 128 55 224 q 109 320 180 386 q 203 408 221 407 q 239 406 288 361 q 292 357 292 353 q 292 345 282 345 q 278 345 275 346 q 240 361 219 345 q 173 312 118 227 q 53 129 40 51 q 40 47 40 44 q 40 32 49 32 q 66 32 89 55 q 144 108 206 189 q 270 272 288 315 q 301 346 305 359 q 312 381 319 381 q 326 381 353 361 q 364 353 365 346 q 366 340 361 325 z"},"L":{"x_min":0,"x_max":531,"ha":531,"o":"m 553 598 q 554 522 521 428 q 512 403 497 403 q 498 403 470 406 q 447 409 447 420 q 447 426 455 431 q 466 450 479 502 q 492 561 490 598 q 488 626 461 626 q 446 626 428 613 q 368 568 310 449 q 254 333 178 104 q 167 70 142 63 q 271 63 415 48 q 437 46 443 50 q 445 52 455 73 q 461 86 467 86 q 474 86 479 75 q 500 35 500 18 q 500 4 481 -13 q 460 -32 449 -32 q 441 -32 423 -27 q 309 5 171 5 q 133 5 97 2 q 73 0 68 -3 q 68 -3 59 -19 q 46 -41 29 -41 q 18 -41 14 -30 q 0 11 0 22 q 0 59 106 63 q 188 354 281 523 q 360 668 416 676 q 432 678 497 647 q 513 648 521 648 q 543 648 549 638 q 553 630 553 598 z"},"3":{"x_min":0,"x_max":383,"ha":383,"o":"m 344 118 q 355 99 355 77 q 355 43 331 17 q 261 -60 164 -121 q 57 -188 -10 -188 q -42 -188 -70 -165 q -77 -160 -115 -120 q -123 -112 -123 -104 q -123 -93 -109 -93 q -104 -93 -98 -96 q -56 -121 -31 -121 q 0 -121 59 -98 q 131 -70 200 -20 q 269 30 297 75 q 311 96 311 113 q 311 136 288 150 q 235 183 168 183 q 155 183 142 182 q 135 182 121 178 q 107 175 102 175 q 89 175 87 187 q 83 209 83 240 q 83 254 108 266 q 181 301 206 317 q 250 345 275 384 q 285 399 285 409 q 285 427 257 427 q 226 427 187 407 q 109 366 102 335 q 99 321 90 321 q 84 321 80 328 q 54 366 54 375 q 54 392 76 408 q 147 460 220 483 q 239 489 250 489 q 266 489 274 478 q 282 465 290 452 q 334 422 334 389 q 334 366 310 345 q 253 295 151 233 q 265 221 333 174 q 354 159 354 146 q 354 140 344 118 z"},";":{"x_min":0,"x_max":200,"ha":200,"o":"m 143 297 q 156 292 156 280 q 156 270 136 224 q 120 188 102 188 q 108 188 67 192 q 62 192 60 198 q 58 204 64 205 q 88 259 95 285 q 101 306 110 306 q 118 306 143 297 z m 119 112 q 123 105 109 79 q 68 2 43 -77 q 53 -82 35 -94 q 17 -105 0 -103 q -7 -102 -7 -90 q -7 -76 8 -21 q 30 58 50 84 q 59 95 72 100 q 117 116 119 112 z"},"J":{"x_min":0,"x_max":436,"ha":436,"o":"m 439 477 q 416 311 336 117 q 241 -117 155 -116 q 105 -115 39 -53 q 34 -48 34 -40 q 34 -24 46 -24 q 50 -24 54 -27 q 101 -55 130 -57 q 195 -61 284 163 q 370 380 382 557 q 384 589 366 601 q 350 611 313 609 q 276 607 225 553 q 169 493 145 414 q 142 403 142 393 q 142 372 173 338 q 178 333 178 328 q 178 319 164 319 q 158 319 154 321 q 81 368 81 405 q 81 429 100 470 q 128 528 180 583 q 230 635 268 650 q 275 653 284 653 q 302 653 340 639 q 343 643 350 643 q 370 643 424 604 q 443 590 443 536 q 443 509 439 477 z"},"V":{"x_min":0,"x_max":662,"ha":662,"o":"m 785 623 q 792 614 792 607 q 792 597 749 569 q 689 498 586 328 q 477 145 434 38 q 437 27 437 21 q 437 5 406 -9 q 394 -15 384 -15 q 372 -15 352 8 q 344 17 344 27 q 344 41 358 53 q 355 216 314 378 q 278 521 236 582 q 221 604 197 604 q 170 604 121 567 q 116 563 108 563 q 94 563 94 573 q 94 579 102 587 q 144 629 206 664 q 228 677 242 677 q 264 677 286 644 q 386 497 425 121 q 459 190 554 358 q 642 514 654 531 q 645 529 634 549 q 624 569 624 589 q 624 604 633 604 q 645 604 656 604 q 669 607 690 626 q 704 638 718 651 q 732 661 739 661 q 759 661 785 623 z"},"\"":{"x_min":0,"x_max":276,"ha":276,"o":"m 314 604 q 317 572 290 495 q 265 424 253 424 q 251 424 249 425 q 223 440 220 462 q 219 471 225 471 q 250 549 259 635 q 261 655 262 658 q 264 666 269 668 q 273 669 304 631 q 312 620 314 604 z m 198 603 q 201 568 175 494 q 150 422 138 422 q 136 422 133 424 q 108 439 104 461 q 104 471 109 470 q 134 550 143 634 q 145 654 146 657 q 147 665 153 667 q 157 668 188 630 q 198 617 198 603 z"},"7":{"x_min":0,"x_max":409,"ha":409,"o":"m 436 454 q 438 428 428 416 q 427 415 404 399 q 382 384 249 130 q 112 -129 85 -214 q 77 -235 70 -256 q 63 -274 64 -287 q 65 -308 58 -308 q 53 -308 44 -300 q 22 -281 3 -246 q -5 -232 -5 -223 q -5 -207 14 -173 q 98 -24 109 -4 q 167 95 354 404 q 283 418 179 414 q 117 412 87 349 q 79 332 65 332 q 54 332 54 346 q 54 350 55 354 q 69 417 87 463 q 99 493 132 493 q 146 493 171 489 q 238 479 372 463 q 381 486 383 488 q 389 497 406 497 q 423 497 428 490 q 434 482 436 454 z"},"S":{"x_min":0,"x_max":547,"ha":547,"o":"m 632 596 q 613 529 580 480 q 565 458 552 458 q 540 458 508 479 q 498 485 498 492 q 498 502 515 507 q 528 511 544 551 q 559 590 559 612 q 559 635 541 635 q 535 635 525 633 q 506 630 443 607 q 436 604 430 604 q 415 604 415 614 q 415 624 430 631 q 485 658 538 677 q 555 683 562 683 q 574 683 592 652 q 619 644 625 640 q 636 633 636 620 q 636 611 632 596 z m 486 148 q 486 60 396 6 q 370 -35 329 -34 q 256 -33 167 31 q 90 85 61 136 q 33 184 33 196 q 33 211 55 230 q 76 248 87 248 q 99 248 99 233 q 99 227 96 218 q 122 147 206 87 q 289 26 357 27 q 417 27 417 109 q 417 154 347 288 q 277 423 277 481 q 277 519 298 549 q 316 574 362 608 q 370 614 378 614 q 392 614 392 603 q 392 595 383 587 q 345 551 345 500 q 345 443 416 312 q 486 180 486 148 z"},"}":{"x_min":0,"x_max":400,"ha":400,"o":"m 374 591 q 354 542 298 384 q 295 375 295 368 q 295 333 349 305 q 355 302 355 294 q 355 277 342 278 q 312 280 284 265 q 251 249 242 218 q 213 115 181 2 q 160 -68 108 -77 q 108 -77 14 -77 q 2 -77 2 -64 q 2 -49 17 -49 q 67 -48 84 -37 q 102 -27 117 11 q 141 83 186 214 q 200 251 232 278 q 261 303 287 307 q 245 336 245 373 q 245 389 251 410 q 278 494 309 591 q 317 618 317 634 q 317 676 255 676 q 241 676 241 691 q 241 704 253 704 q 321 703 349 689 q 381 673 381 635 q 381 616 374 591 z"},"Z":{"x_min":0,"x_max":547,"ha":547,"o":"m 630 572 q 630 551 596 524 q 581 512 566 512 q 559 512 526 519 q 456 482 314 290 q 420 288 472 283 q 492 281 492 267 q 492 256 468 254 q 372 247 274 235 q 205 133 170 66 q 255 66 422 37 q 434 35 441 35 q 453 35 460 47 q 468 66 479 66 q 490 66 494 58 q 501 33 508 7 q 510 0 510 -6 q 510 -20 498 -30 q 485 -41 473 -50 q 466 -56 440 -47 q 284 9 136 9 q 123 -8 114 -12 q 105 -16 81 -16 q 60 -16 46 2 q 32 21 32 25 q 32 31 41 44 q 54 62 72 65 q 79 67 112 66 q 134 104 175 165 q 175 192 170 223 q 166 254 166 258 q 166 268 171 273 q 183 284 260 288 q 391 471 472 539 q 471 539 368 574 q 300 597 263 597 q 213 597 190 555 q 159 500 129 405 q 124 387 108 387 q 96 387 96 403 q 96 406 97 411 q 130 553 170 633 q 192 676 248 676 q 284 676 386 637 q 494 595 530 591 q 558 612 579 612 q 590 612 605 608 q 631 600 631 586 q 631 584 631 579 q 630 575 630 572 z"},"x":{"x_min":0,"x_max":328,"ha":328,"o":"m 343 347 q 324 324 257 261 q 192 201 183 189 q 195 138 221 58 q 230 37 242 37 q 250 37 268 51 q 273 55 278 55 q 288 55 288 46 q 288 42 284 37 q 241 -12 217 -15 q 189 -19 176 17 q 155 71 136 148 q -48 -46 -53 -140 q -54 -167 -45 -182 q -34 -200 -47 -200 q -52 -200 -58 -193 q -80 -168 -85 -156 q -95 -138 -94 -110 q -93 -70 -25 17 q 37 97 126 181 q 96 302 75 330 q 66 342 59 342 q 51 342 37 332 q 31 328 26 328 q 19 328 19 334 q 19 340 28 347 q 72 379 94 390 q 110 398 115 398 q 125 398 131 381 q 139 358 175 229 q 249 305 274 336 q 317 389 319 420 q 320 437 315 448 q 310 460 319 460 q 322 460 326 456 q 361 413 361 389 q 361 369 343 347 z"},")":{"x_min":0,"x_max":400,"ha":400,"o":"m 359 578 q 338 409 260 184 q 165 -88 83 -87 q 39 -86 -23 -39 q -30 -34 -30 -28 q -30 -16 -13 -16 q -9 -16 -5 -17 q 37 -33 58 -33 q 107 -33 183 152 q 262 344 293 554 q 295 571 295 584 q 295 622 275 644 q 259 660 216 679 q 204 685 204 696 q 204 711 221 707 q 301 688 330 667 q 360 645 360 601 q 360 591 359 578 z"},"&":{"x_min":0,"x_max":713,"ha":713,"o":"m 688 -65 q 674 -85 640 -115 q 602 -149 584 -149 q 518 -149 344 213 q 335 212 330 212 q 308 212 308 222 q 308 230 327 251 q 314 278 303 304 l 303 305 q 90 144 76 57 q 73 38 90 32 q 103 28 122 31 q 201 44 290 106 q 297 111 302 123 q 306 135 316 141 q 340 155 347 155 q 359 155 361 133 q 363 106 359 97 q 356 90 341 80 q 307 58 243 27 q 151 -17 111 -17 q 76 -17 55 22 q 10 57 10 83 q 10 130 113 223 q 185 290 282 357 q 238 474 238 544 q 238 566 299 566 q 324 566 349 563 q 372 560 370 547 q 435 544 462 529 q 478 520 478 501 q 478 496 473 451 q 471 432 435 401 q 417 386 348 337 q 352 328 361 309 q 369 290 373 280 q 396 279 424 279 q 577 279 614 298 q 637 310 639 323 q 641 332 653 332 q 663 332 663 319 q 663 299 656 272 q 647 239 635 229 q 627 223 555 223 q 512 223 470 223 q 434 223 402 220 q 462 97 516 17 q 576 -74 606 -74 q 633 -74 671 -45 q 675 -42 681 -42 q 693 -42 693 -52 q 693 -58 688 -65 z m 430 480 q 433 494 390 513 q 350 530 332 530 q 298 530 298 498 q 298 469 328 387 q 368 414 399 444 q 428 472 430 480 z"},"_":{"x_min":0,"x_max":500,"ha":500,"o":"m 500 -180 l 0 -180 l 0 -133 l 500 -133 z"},"v":{"x_min":0,"x_max":347,"ha":347,"o":"m 355 353 q 343 325 327 287 q 331 277 349 254 q 353 249 348 244 q 343 239 334 239 q 323 239 314 250 q 282 177 241 102 q 198 22 179 3 q 163 -13 147 -13 q 132 -13 120 -1 q 102 -9 93 -9 q 76 -9 67 21 q 54 63 54 141 q 54 251 73 306 q 62 296 32 263 q 27 257 20 257 q 11 257 11 266 q 11 270 15 276 q 44 315 92 381 q 104 398 117 398 q 132 398 162 375 q 168 370 168 363 q 168 351 151 345 q 108 253 108 139 q 108 80 122 40 q 127 24 137 24 q 146 24 158 41 q 196 93 232 169 q 265 237 276 278 q 270 289 270 308 q 270 341 291 396 q 300 419 315 419 q 323 419 349 404 q 362 396 362 384 q 362 375 355 353 z"},"O":{"x_min":0,"x_max":583,"ha":583,"o":"m 625 558 q 607 406 524 227 q 415 -9 283 -14 q 258 -15 235 -10 q 208 -5 212 3 q 132 22 101 48 q 59 84 61 158 q 66 300 146 461 q 209 591 269 646 q 294 669 315 669 q 336 669 357 657 q 366 652 413 621 q 451 663 478 681 q 494 692 511 692 q 540 692 563 663 q 604 661 615 652 q 629 643 629 613 q 629 596 625 558 z m 560 599 q 562 636 543 636 q 527 636 496 614 q 426 565 326 471 q 315 460 306 460 q 298 459 298 467 q 298 475 305 486 q 348 552 392 601 q 367 620 347 620 q 334 620 325 613 q 271 573 203 438 q 121 277 127 156 q 129 106 146 81 q 161 59 198 40 q 228 25 257 28 q 356 39 454 231 q 547 415 560 599 z"},"(":{"x_min":0,"x_max":400,"ha":400,"o":"m 483 661 q 493 654 493 647 q 493 635 478 635 q 473 635 469 637 q 429 656 407 656 q 354 656 273 454 q 194 257 166 69 q 162 43 162 28 q 162 -3 179 -20 q 194 -35 240 -54 q 253 -60 253 -73 q 253 -84 243 -84 q 240 -84 238 -84 q 161 -67 133 -47 q 100 -24 100 22 q 100 33 101 45 q 123 224 209 455 q 304 709 373 709 q 416 708 483 661 z"},"C":{"x_min":0,"x_max":505,"ha":505,"o":"m 515 563 q 492 468 461 416 q 447 392 433 392 q 428 392 420 394 q 383 405 383 421 q 383 429 393 431 q 436 496 444 586 q 417 610 393 610 q 342 610 273 521 q 209 437 162 321 q 113 201 115 121 q 116 75 143 52 q 163 35 188 35 q 203 35 222 41 q 269 56 331 98 q 389 138 428 179 q 440 192 443 213 q 444 224 453 224 q 459 224 463 215 q 480 171 480 154 q 480 138 467 124 q 458 115 426 90 q 322 12 248 -7 q 225 -13 206 -13 q 166 -13 145 14 q 50 50 50 123 q 50 241 112 377 q 165 495 243 584 q 318 669 365 673 q 382 674 405 659 q 408 657 450 622 q 453 642 463 642 q 475 642 503 620 q 521 606 521 594 q 521 585 515 563 z"},"W":{"x_min":0,"x_max":982,"ha":982,"o":"m 1035 461 q 1041 455 1041 447 q 1041 433 1028 433 q 1025 433 1022 435 q 1012 444 996 454 q 912 143 792 7 q 779 -7 758 -7 q 737 -7 715 4 q 646 24 620 45 q 582 76 578 139 q 577 157 577 178 q 577 314 615 461 q 562 403 496 311 q 419 203 390 134 q 359 61 347 43 q 337 29 313 17 q 274 -2 259 -2 q 249 -2 249 6 q 249 13 255 26 q 305 132 356 318 q 407 503 407 583 q 407 596 405 604 q 354 592 283 559 q 215 528 169 497 q 144 480 144 452 q 144 434 154 411 q 156 406 156 403 q 156 395 148 395 q 139 395 131 405 q 71 479 73 500 q 75 525 135 557 q 178 580 262 607 q 348 635 371 647 q 374 654 376 662 q 380 673 392 673 q 409 673 447 645 q 478 623 478 588 q 478 580 475 555 q 471 518 442 405 q 414 299 393 237 q 436 299 531 423 q 623 544 638 559 q 654 617 659 628 q 670 653 689 653 q 695 653 703 651 q 757 634 757 619 q 757 610 745 597 l 711 562 l 711 562 l 711 561 q 644 343 644 196 q 644 176 645 156 q 648 105 669 72 q 691 40 720 40 q 754 41 782 79 q 831 146 882 265 q 941 400 958 503 q 935 529 935 577 q 935 616 951 675 q 959 707 977 707 q 993 707 1016 679 q 1033 658 1033 631 q 1033 614 1005 493 q 1012 486 1035 461 z"},"A":{"x_min":0,"x_max":640,"ha":640,"o":"m 625 640 q 595 597 568 407 q 544 240 546 146 q 548 52 577 52 q 582 52 592 56 q 602 60 607 60 q 617 60 617 53 q 617 47 610 41 q 585 20 535 -7 q 523 -13 514 -13 q 466 -13 480 229 q 363 222 259 210 l 162 92 q 188 95 182 95 q 205 95 218 47 q 221 36 221 29 q 221 18 211 18 q 206 18 197 20 q 187 22 182 22 q 140 22 70 -22 q 49 -35 49 -35 q 45 -35 34 -28 q 11 -12 2 10 q -4 25 19 40 q 49 60 102 106 q 155 152 171 173 q 167 217 167 219 q 167 247 188 255 q 205 263 250 265 q 371 413 445 553 q 421 541 359 521 q 260 488 222 475 q 169 456 169 409 q 169 399 171 387 q 174 369 162 369 q 153 369 149 377 q 122 433 117 456 q 113 477 113 478 q 113 495 129 509 q 158 534 240 546 q 363 564 452 604 q 463 615 464 616 q 466 620 469 629 q 472 639 479 639 q 490 639 512 615 q 520 607 520 599 q 520 594 503 565 q 467 501 406 410 q 339 309 302 266 q 418 266 484 272 q 491 340 514 467 q 525 529 537 591 q 544 644 608 668 q 618 672 624 672 q 635 672 635 663 q 635 654 625 640 z"},"f":{"x_min":0,"x_max":243,"ha":243,"o":"m 430 733 q 438 728 438 721 q 438 711 425 711 q 420 711 415 714 q 387 729 366 729 q 350 729 337 721 q 288 690 182 395 q 261 383 282 383 q 293 383 293 375 q 293 365 282 363 q 225 352 166 349 q 99 151 62 -19 q 31 -156 31 -214 q 31 -219 33 -229 q 34 -239 34 -245 q 34 -252 29 -252 q 21 -252 -6 -236 q -39 -217 -34 -191 q 7 26 110 348 q 72 346 64 346 q 54 348 50 356 q 44 369 44 371 q 44 378 60 382 q 83 387 105 392 q 125 398 129 408 q 208 636 252 719 q 290 787 323 787 q 355 787 430 733 z"},"Q":{"x_min":0,"x_max":605,"ha":605,"o":"m 625 558 q 614 464 566 331 q 506 162 428 71 q 455 65 479 65 q 540 65 581 104 q 586 109 591 109 q 600 109 600 98 q 600 95 598 91 q 585 62 561 27 q 538 -5 509 -5 q 498 -5 478 -3 q 471 -3 372 19 q 331 -13 283 -14 q 258 -15 235 -10 q 208 -5 212 3 q 132 22 101 48 q 59 84 61 158 q 66 300 146 461 q 209 591 269 646 q 294 669 315 669 q 336 669 357 657 q 366 652 413 621 q 451 663 478 681 q 494 692 511 692 q 540 692 563 663 q 604 661 615 652 q 629 643 629 613 q 629 596 625 558 z m 560 599 q 562 636 543 636 q 527 636 496 614 q 426 565 326 471 q 315 460 306 460 q 298 459 298 467 q 298 475 305 486 q 348 552 392 601 q 367 620 347 620 q 334 620 325 613 q 271 573 203 438 q 121 277 127 156 q 129 106 146 81 q 161 59 198 40 q 227 25 257 28 q 278 30 301 42 q 282 49 231 72 q 217 78 217 109 q 217 129 222 147 q 223 156 231 158 q 237 159 242 155 q 284 115 358 88 q 434 168 492 316 q 550 465 560 599 z"},"w":{"x_min":0,"x_max":515,"ha":515,"o":"m 511 252 q 518 246 518 238 q 518 224 505 224 q 502 224 485 234 q 478 240 472 242 q 411 73 367 12 q 351 -11 333 -11 q 325 -11 299 -3 q 276 4 271 10 q 266 15 260 37 q 238 125 238 181 q 214 147 158 80 q 104 16 93 -1 q 87 -10 76 -10 q 62 -10 33 12 q 26 18 26 22 q 26 30 46 45 q 62 93 75 169 q 86 243 86 296 q 86 323 83 338 q 73 328 40 285 q 35 278 27 278 q 17 278 17 288 q 17 292 20 297 q 35 316 63 360 q 72 376 86 382 q 89 384 123 392 q 132 394 137 394 q 146 394 147 385 q 149 378 149 351 q 149 198 115 84 q 205 172 237 255 q 241 301 245 321 q 251 355 265 379 q 277 400 291 400 q 303 400 327 383 q 341 374 341 366 q 341 361 333 340 q 318 299 297 269 q 292 237 292 202 q 292 130 312 53 q 317 32 326 32 q 335 32 348 57 q 421 198 438 269 q 432 277 425 287 q 418 296 418 307 q 418 317 423 330 q 428 353 433 375 q 440 403 458 403 q 473 403 498 389 q 513 380 513 361 q 513 345 501 317 q 493 298 485 278 q 489 272 511 252 z"},"-":{"x_min":0,"x_max":363,"ha":363,"o":"m 310 211 q 309 202 305 170 q 303 152 302 149 q 298 143 284 143 q 215 143 99 171 q 83 175 75 175 q 62 175 54 160 q 51 155 47 155 q 41 155 41 164 q 41 166 41 167 q 43 176 50 207 q 55 229 62 229 q 66 229 73 227 q 188 193 252 192 q 275 192 285 198 q 290 202 296 215 q 299 222 305 220 q 311 219 310 211 z"},"E":{"x_min":0,"x_max":603,"ha":603,"o":"m 646 603 q 650 582 650 572 q 650 561 644 555 q 643 554 625 540 q 610 529 582 536 q 492 559 376 578 q 343 443 327 375 q 381 379 511 386 q 539 387 548 368 q 549 365 556 335 q 557 331 557 328 q 557 312 518 305 q 477 298 471 310 q 464 324 445 324 q 336 324 312 320 l 273 198 q 256 148 243 129 q 230 110 201 90 q 218 91 238 91 q 319 91 505 74 q 520 73 523 89 q 526 105 533 106 q 546 107 550 95 q 555 74 563 39 q 565 29 554 19 q 543 11 534 2 q 524 -6 516 -5 q 514 -5 488 2 q 383 30 252 30 q 199 30 138 26 q 97 -10 87 -10 q 79 -10 76 3 q 67 49 67 54 q 67 73 88 79 q 107 85 173 88 q 224 183 252 275 q 249 284 237 310 q 229 328 229 335 q 229 354 267 363 q 274 365 283 367 q 306 453 339 587 q 269 599 235 599 q 213 599 190 596 q 136 588 136 524 q 136 496 147 453 q 152 434 139 434 q 129 434 126 446 q 105 513 105 559 q 105 592 115 622 q 129 667 200 667 q 251 667 355 647 q 380 666 390 666 q 397 666 397 657 q 397 650 393 639 q 413 633 586 594 q 608 589 621 611 q 626 619 633 619 q 643 619 646 603 z"},"s":{"x_min":0,"x_max":244,"ha":244,"o":"m 252 391 q 252 369 240 321 q 236 304 230 299 q 228 297 214 292 q 196 285 191 285 q 184 285 184 295 q 184 300 186 309 q 198 357 195 376 q 192 395 206 400 q 230 412 237 412 q 252 412 252 391 z m 174 111 q 175 52 109 31 q 101 10 93 2 q 82 -9 60 -11 q 46 -12 30 -10 q 1 -5 -41 1 q -53 3 -55 15 q -53 28 -28 31 q 7 33 75 43 q 100 49 111 72 q 117 83 117 101 q 117 131 86 209 q 56 285 58 310 q 62 371 171 395 q 182 397 182 387 q 182 381 174 378 q 121 355 121 321 q 121 308 126 288 q 131 269 155 193 q 173 139 174 111 z"},">":{"x_min":0,"x_max":296,"ha":296,"o":"m 260 184 q 260 180 251 178 q 205 170 151 152 q 96 133 81 118 q 73 104 67 104 q 59 104 51 124 q 42 143 42 147 q 42 158 69 169 q 115 188 185 210 q 195 212 179 228 q 122 284 86 333 q 74 350 74 354 q 74 360 90 363 q 102 365 108 365 q 118 365 124 348 q 134 321 218 232 q 225 224 242 216 q 253 210 257 198 q 261 186 260 184 z"},"l":{"x_min":0,"x_max":190,"ha":190,"o":"m 410 758 q 417 753 417 748 q 417 738 405 738 q 400 738 395 741 q 373 752 361 752 q 331 752 294 693 q 161 477 105 134 q 104 125 100 109 q 111 121 133 147 q 146 162 152 162 q 165 162 154 147 q 107 80 92 7 q 86 -11 78 -11 q 74 -11 68 -7 q 43 10 40 13 q 30 22 30 38 q 30 46 32 57 q 89 368 178 587 q 246 752 299 801 q 313 814 328 814 q 341 813 362 797 q 386 778 410 758 z"},"8":{"x_min":0,"x_max":475,"ha":475,"o":"m 499 549 q 465 511 392 451 q 318 390 306 376 q 308 375 362 333 q 395 308 419 280 q 441 254 441 219 q 441 154 372 91 q 257 -14 137 -14 q 106 -14 81 31 q 54 52 26 74 q 2 96 2 120 q 2 140 17 166 q 45 214 133 287 q 187 332 241 376 q 171 424 172 494 q 173 601 306 703 q 329 720 346 720 q 370 720 406 685 q 413 679 413 674 q 413 665 399 665 q 396 665 390 666 q 383 667 380 667 q 326 667 275 592 q 229 525 229 476 q 229 453 244 433 q 258 418 271 404 q 338 461 389 520 q 449 588 452 622 q 453 627 453 632 q 453 655 430 672 q 424 677 424 685 q 424 700 439 700 q 446 700 453 695 q 525 646 525 605 q 525 578 499 549 z m 385 247 q 385 287 276 346 q 243 318 211 287 q 137 213 87 134 q 75 116 75 97 q 75 48 154 48 q 223 48 304 117 q 385 187 385 247 z"},"\\":{"x_min":0,"x_max":400,"ha":400,"o":"m 272 655 l 230 122 q 228 89 230 51 q 233 -4 247 -14 q 256 -20 256 -29 q 256 -49 224 -46 l 188 -43 q 156 -41 159 -2 l 203 538 q 211 640 184 657 q 173 664 173 672 q 173 682 188 684 l 242 693 q 270 693 272 655 z"},"e":{"x_min":0,"x_max":293,"ha":293,"o":"m 275 139 q 156 -13 108 -13 q 85 -13 50 19 q 13 36 13 65 q 13 70 14 76 q 23 143 50 224 q 32 233 32 242 q 32 249 42 249 q 50 249 58 244 q 102 342 136 383 q 159 410 177 410 q 185 410 218 396 q 215 411 226 413 q 227 413 249 413 q 270 413 270 406 q 270 404 269 397 q 267 391 267 385 q 267 367 268 341 q 268 315 268 307 q 268 246 235 222 q 205 200 167 200 q 146 200 100 211 q 92 196 82 152 q 68 96 69 53 q 69 28 85 28 q 91 28 100 31 q 157 51 258 153 q 264 159 271 159 q 280 159 280 150 q 280 145 275 139 z m 218 355 q 218 374 209 374 q 204 374 194 366 q 146 328 110 231 q 120 229 144 228 q 184 227 203 246 q 218 261 219 294 q 218 270 218 355 z"},"b":{"x_min":0,"x_max":419,"ha":419,"o":"m 411 758 q 417 753 417 748 q 417 738 405 738 q 401 738 396 741 q 374 753 362 753 q 332 753 295 693 q 163 479 104 133 q 155 219 180 254 q 230 328 285 377 q 312 401 333 401 q 343 401 366 387 q 410 367 406 325 q 397 230 358 139 q 320 50 268 -1 q 253 -15 238 -15 q 206 -15 150 57 q 144 65 144 71 q 144 79 152 79 q 160 79 168 72 q 197 47 217 47 q 237 47 256 71 q 290 114 317 188 q 348 271 348 336 q 348 361 331 361 q 321 361 309 351 q 249 299 187 204 q 122 102 92 7 q 86 -11 78 -11 q 74 -11 68 -7 q 43 10 40 13 q 30 22 30 38 q 30 46 32 57 q 89 368 179 587 q 246 751 300 801 q 314 814 327 814 q 341 814 362 798 q 386 778 411 758 z"},"%":{"x_min":0,"x_max":566,"ha":566,"o":"m 323 553 q 293 461 254 423 q 233 403 193 403 q 183 403 174 406 q 96 418 95 473 q 95 506 117 566 q 143 633 172 657 q 188 670 199 670 q 210 670 239 645 q 277 663 284 663 q 298 663 315 640 q 333 616 333 597 q 333 582 323 553 z m 516 618 l 170 123 q 104 28 104 -9 q 104 -13 106 -19 q 108 -25 108 -29 q 108 -39 100 -39 q 95 -39 89 -35 l 59 -14 q 46 -5 46 10 q 46 23 58 40 l 411 541 q 468 621 468 662 q 468 667 465 673 q 463 679 463 683 q 463 693 472 693 q 477 693 482 690 l 512 670 q 525 661 525 648 q 525 636 516 618 z m 483 138 q 452 43 414 7 q 396 -10 353 -12 q 343 -12 334 -9 q 256 3 255 58 q 254 92 277 152 q 302 219 332 243 q 348 256 358 256 q 369 256 399 230 q 438 248 444 248 q 458 248 475 225 q 492 201 492 181 q 492 167 483 138 z m 282 600 q 285 622 284 627 q 282 634 269 633 q 252 629 226 621 q 205 617 203 620 q 167 575 153 499 q 150 481 150 467 q 150 421 179 421 q 214 421 246 485 q 273 539 282 600 z m 442 185 q 447 218 436 218 q 433 218 429 217 q 412 214 386 207 q 366 200 363 205 q 328 160 313 83 q 310 66 310 52 q 310 5 339 5 q 375 5 406 69 q 433 124 442 185 z"},"m":{"x_min":0,"x_max":643,"ha":643,"o":"m 613 156 q 581 108 518 -11 q 512 -22 511 -22 q 506 -25 490 -20 q 457 -10 457 0 q 457 5 461 15 q 498 101 524 198 q 550 294 549 346 q 549 363 537 363 q 528 363 517 354 q 476 320 410 223 q 331 106 298 4 q 294 -8 292 -9 q 289 -11 278 -7 q 261 -1 246 10 q 239 15 239 21 q 239 22 246 40 q 310 200 310 350 q 310 365 301 365 q 295 365 285 357 q 233 313 169 206 q 107 103 77 13 q 69 -10 61 -10 q 51 -10 21 12 q 13 17 13 21 q 13 27 24 38 q 44 81 69 185 q 98 303 94 357 q 87 350 69 333 q 52 316 43 307 q 37 301 32 301 q 24 301 24 311 q 24 318 30 324 q 57 353 84 391 q 94 405 101 405 q 106 405 122 389 q 134 385 146 380 q 157 375 157 362 q 157 358 156 354 q 144 260 118 178 q 205 333 279 399 q 289 408 299 408 q 309 408 330 395 q 350 386 356 379 q 364 371 364 352 q 364 252 341 175 q 436 326 514 399 q 524 409 536 409 q 550 409 572 389 q 610 383 608 343 q 602 225 557 115 q 582 144 595 165 q 602 175 610 175 q 617 175 617 167 q 617 163 613 156 z"},"#":{"x_min":0,"x_max":527,"ha":527,"o":"m 375 324 q 329 324 225 328 l 180 203 q 263 197 329 199 q 340 225 375 324 z m 435 366 q 481 370 497 388 q 503 395 511 394 q 519 392 519 386 q 515 377 510 351 q 507 333 498 329 q 494 327 472 325 q 458 324 420 324 l 376 201 q 450 205 466 224 q 472 230 479 229 q 487 227 486 221 q 481 208 478 186 q 476 170 474 168 q 468 162 441 161 q 398 159 361 159 l 352 133 q 330 68 330 33 q 330 24 333 17 q 337 10 337 6 q 337 -5 323 -5 q 317 -5 311 -3 l 285 6 q 271 11 271 30 q 271 38 274 47 l 315 159 q 311 159 166 165 q 163 157 155 133 q 133 68 133 33 q 133 24 136 17 q 140 10 140 6 q 140 -5 126 -5 q 121 -5 114 -3 l 89 6 q 74 11 74 29 q 74 37 78 47 l 122 167 q 65 169 46 153 q 42 148 35 148 q 28 149 28 154 q 28 156 29 158 q 33 166 44 193 q 50 208 53 209 q 60 214 85 212 q 103 210 136 207 l 181 331 q 145 333 125 333 q 100 333 91 329 q 89 328 78 318 q 73 313 66 313 q 60 314 60 319 q 60 321 61 323 q 61 320 76 358 q 82 373 84 374 q 91 378 117 376 q 145 374 195 370 l 203 392 q 219 437 219 474 q 219 485 215 494 q 210 502 210 505 q 210 517 224 515 l 264 510 q 283 505 277 473 l 239 366 q 290 362 337 362 q 361 362 389 363 q 396 380 400 392 q 417 436 417 474 q 417 485 412 494 q 407 502 407 505 q 407 517 421 515 l 460 510 q 480 505 474 473 z"},",":{"x_min":0,"x_max":200,"ha":200,"o":"m 119 112 q 123 105 109 79 q 68 2 43 -77 q 53 -82 35 -94 q 17 -105 0 -103 q -7 -102 -7 -90 q -7 -76 8 -21 q 30 58 50 84 q 59 95 72 100 q 117 116 119 112 z"},"n":{"x_min":0,"x_max":420,"ha":420,"o":"m 391 174 q 362 129 315 45 q 306 23 298 1 q 291 -14 280 -14 q 271 -14 254 -7 q 235 1 235 9 q 235 12 241 24 q 273 88 298 185 q 325 286 321 339 q 320 360 311 360 q 305 360 292 348 q 169 228 79 27 q 68 2 53 2 q 42 2 17 14 q 7 19 7 22 q 7 24 12 36 q 41 98 68 193 q 98 296 102 354 q 103 372 101 372 q 101 372 87 358 q 74 345 51 324 q 46 320 41 320 q 34 320 34 325 q 34 329 39 334 q 60 361 94 401 q 102 409 109 409 q 121 409 130 392 q 169 380 167 356 q 162 302 112 162 q 145 225 207 303 q 270 381 300 395 q 315 402 321 402 q 328 402 342 391 q 382 377 382 344 q 382 310 365 234 q 352 172 341 137 q 355 155 377 184 q 381 189 385 189 q 392 189 392 180 q 392 177 391 174 z"},"h":{"x_min":0,"x_max":418,"ha":418,"o":"m 410 758 q 417 753 417 747 q 417 738 405 738 q 400 738 395 741 q 373 752 361 752 q 332 752 295 693 q 166 483 104 143 q 184 296 286 387 q 308 407 318 407 q 321 407 343 393 q 369 382 372 379 q 385 368 385 340 q 385 333 384 323 q 375 236 334 113 q 349 133 382 173 q 390 181 395 181 q 400 181 400 175 q 400 167 394 158 q 366 117 319 38 q 315 30 300 -3 q 293 -19 282 -19 q 270 -19 246 -1 q 236 5 242 20 q 326 231 331 335 q 333 365 323 365 q 316 365 296 348 q 258 318 204 241 q 131 139 92 33 q 81 3 72 3 q 63 3 39 23 q 27 33 31 57 q 87 367 178 587 q 246 750 300 801 q 313 813 327 813 q 340 813 361 798 q 386 778 410 758 z"},"z":{"x_min":0,"x_max":320,"ha":320,"o":"m 327 374 q 327 361 314 330 q 307 313 293 313 q 286 313 266 319 q 226 281 183 221 q 198 221 223 223 q 249 224 255 224 q 268 224 268 217 q 268 211 257 209 q 210 197 144 176 q 86 103 70 67 q 88 67 147 59 q 206 52 228 52 q 257 52 275 79 q 280 86 285 86 q 295 86 289 71 q 284 58 260 14 q 244 -16 210 -16 q 188 -16 132 0 q 76 17 48 17 q 36 17 27 16 q 14 -13 -3 -15 q -14 -15 -22 0 q -32 17 -32 28 q -32 41 -22 51 q -4 71 24 71 q 67 119 86 149 q 84 158 80 176 q 77 190 77 195 q 77 201 79 205 q 88 220 141 220 q 185 277 227 326 q 185 337 138 337 q 107 337 90 325 q 72 313 55 281 q 49 269 41 269 q 35 269 35 277 q 35 282 37 287 q 55 341 72 371 q 82 388 88 393 q 99 400 126 400 q 170 400 278 374 q 299 392 306 392 q 311 392 317 389 q 327 383 327 374 z"},"B":{"x_min":0,"x_max":647,"ha":647,"o":"m 618 569 q 611 442 530 361 q 512 343 481 328 q 454 314 436 313 q 553 241 594 185 q 612 160 612 140 q 612 111 575 63 q 580 55 580 47 q 580 -13 358 -13 q 312 -13 258 -10 q 204 -7 200 14 q 196 34 208 67 q 213 83 228 83 q 222 83 260 78 q 271 77 283 57 q 295 38 324 35 q 343 33 367 33 q 471 33 528 59 q 556 72 556 97 q 556 127 523 162 q 501 185 438 231 q 368 282 341 290 q 292 290 292 308 q 292 314 335 348 q 345 356 355 356 q 365 356 378 348 q 390 342 401 335 q 449 337 491 388 q 514 416 536 468 q 560 527 560 569 q 560 597 543 604 q 533 609 504 607 q 484 605 439 595 q 387 583 362 571 q 320 419 253 242 q 192 80 170 46 q 155 24 148 20 q 140 14 105 7 q 82 2 82 10 q 82 14 84 21 q 112 99 112 136 q 112 161 116 164 q 118 166 157 179 q 170 184 174 168 q 217 256 258 379 q 293 485 305 545 q 175 489 127 428 q 115 412 115 393 q 115 380 122 351 q 124 344 124 340 q 124 331 117 331 q 109 331 99 342 q 50 399 50 429 q 50 439 67 460 q 99 499 178 548 q 256 597 320 620 q 325 653 323 661 q 320 675 332 675 q 337 675 344 668 q 366 646 363 637 q 470 668 510 667 q 539 666 557 650 q 568 640 585 608 q 600 609 609 601 q 619 590 618 569 z"},"K":{"x_min":0,"x_max":734,"ha":734,"o":"m 717 657 q 727 647 727 641 q 727 633 706 608 q 652 542 548 438 q 448 340 412 316 q 457 253 501 189 q 569 94 618 61 q 640 46 657 46 q 674 46 697 63 q 702 66 706 66 q 716 66 716 56 q 716 50 712 44 q 697 21 648 -23 q 637 -33 626 -33 q 613 -33 597 -20 q 537 28 462 133 q 384 243 354 269 q 338 263 329 263 q 312 263 310 288 q 310 296 310 301 q 310 322 321 331 q 332 341 365 348 q 377 351 384 342 q 441 386 514 461 q 586 535 601 565 q 570 583 570 595 q 570 604 588 608 q 612 625 646 663 q 660 679 676 679 q 695 679 717 657 z m 429 618 q 368 508 311 359 q 262 231 234 111 q 215 30 217 10 q 220 2 220 -4 q 220 -15 211 -15 q 201 -15 178 3 q 153 22 153 34 q 153 42 157 57 q 197 198 257 356 q 296 454 342 569 q 202 535 142 487 q 120 470 120 454 q 120 443 130 397 q 133 382 119 382 q 109 382 104 391 q 87 417 70 468 q 66 479 66 488 q 66 525 123 548 q 143 556 325 616 q 368 630 384 650 q 395 664 403 664 q 411 664 423 655 q 437 645 437 638 q 437 632 429 618 z"},"R":{"x_min":0,"x_max":706,"ha":706,"o":"m 806 -50 q 763 -125 728 -128 q 707 -129 677 -104 q 499 50 322 297 q 305 239 265 136 q 228 42 208 3 q 197 -19 187 -19 q 181 -19 172 -12 q 140 12 140 27 q 140 37 146 51 q 159 79 173 127 q 173 139 174 151 q 175 159 182 161 q 188 163 210 130 q 247 208 293 337 q 267 377 267 387 q 267 398 313 402 q 333 461 358 554 q 278 524 239 502 q 179 470 144 425 q 129 406 129 382 q 129 363 148 307 q 153 291 139 291 q 129 291 123 301 q 95 343 78 387 q 66 417 66 426 q 66 451 101 483 q 200 574 369 625 q 372 629 376 660 q 380 683 388 682 q 397 681 418 642 q 530 669 558 667 q 602 664 626 605 q 656 584 665 570 q 678 551 678 520 q 678 466 612 383 q 544 299 495 299 q 468 299 445 312 q 428 323 410 335 q 403 339 403 345 q 403 358 419 358 q 423 358 436 354 q 449 350 458 350 q 507 350 568 428 q 623 499 623 545 q 623 601 545 601 q 479 601 401 570 q 378 472 346 378 q 442 234 565 99 q 696 -44 744 -48 q 764 -49 785 -33 q 794 -26 801 -26 q 811 -26 811 -35 q 811 -42 806 -50 z"},"T":{"x_min":0,"x_max":568,"ha":568,"o":"m 706 623 q 707 619 707 615 q 707 601 689 596 q 688 596 656 591 q 569 579 478 571 q 439 488 383 303 q 332 134 307 21 q 299 -16 283 -16 q 272 -16 241 -5 q 230 -1 229 8 q 230 -1 230 38 q 230 110 253 169 q 262 191 272 191 q 275 191 284 189 q 292 187 298 186 q 311 236 360 383 q 416 549 421 565 q 346 559 271 542 q 187 521 161 498 q 132 472 132 446 q 132 418 164 359 q 167 353 167 347 q 167 335 156 335 q 148 335 142 344 q 104 399 92 430 q 83 452 80 492 q 75 552 178 580 q 313 617 450 629 q 466 661 473 661 q 484 661 511 636 q 524 636 590 646 q 602 648 614 663 q 625 677 665 679 q 687 680 695 663 q 697 660 706 623 z"},"P":{"x_min":0,"x_max":566,"ha":566,"o":"m 622 500 q 609 447 556 366 q 502 284 463 256 q 435 236 408 236 q 393 236 333 260 q 321 265 321 271 q 321 281 348 281 q 393 281 416 299 q 463 334 505 396 q 559 475 569 551 q 575 592 541 601 q 525 604 509 601 q 433 597 363 568 q 281 273 213 97 q 217 99 242 114 q 256 122 264 121 q 278 119 292 93 q 303 72 303 62 q 303 48 286 50 q 274 51 246 36 q 215 20 193 -2 q 182 -13 170 -13 q 154 -13 131 9 q 116 23 118 33 q 120 42 134 45 q 253 319 311 547 q 127 464 127 393 q 127 383 131 373 q 132 369 140 348 q 142 343 142 339 q 142 325 131 325 q 116 325 73 410 q 67 422 67 434 q 67 462 103 496 q 128 519 197 559 q 271 601 329 622 q 335 646 335 661 q 335 681 345 681 q 358 681 391 645 q 472 668 500 668 q 554 667 577 611 q 606 589 616 577 q 628 562 628 541 q 628 526 622 500 z"},"|":{"x_min":0,"x_max":400,"ha":400,"o":"m 283 697 l 276 103 q 274 -29 300 -47 q 310 -54 310 -64 q 310 -83 281 -82 l 245 -80 q 215 -78 216 -34 l 223 567 q 223 599 218 637 q 211 689 198 700 q 186 708 186 716 q 186 726 199 730 l 252 739 q 278 739 283 697 z"},"t":{"x_min":0,"x_max":234,"ha":234,"o":"m 297 623 q 311 616 311 606 q 311 600 301 600 q 299 600 295 601 q 291 602 289 602 q 271 602 244 561 q 221 525 179 404 q 175 393 176 391 q 178 388 189 387 q 218 385 266 389 q 283 391 283 375 q 283 364 270 362 q 260 360 162 353 q 104 182 91 63 q 90 57 90 52 q 90 35 99 35 q 112 35 178 99 q 186 107 193 107 q 200 107 201 102 q 203 96 197 88 q 157 36 119 -1 q 103 -16 92 -16 q 82 -16 59 1 q 31 8 31 30 q 31 34 32 38 q 50 164 103 348 q 77 352 56 355 q 47 356 47 367 q 47 378 57 380 q 66 383 93 391 q 109 396 124 406 q 176 567 206 615 q 223 643 243 643 q 261 643 297 623 z"},"M":{"x_min":0,"x_max":931,"ha":931,"o":"m 1035 633 q 1039 630 1039 626 q 1039 616 1023 616 q 1020 616 1014 617 q 1008 618 1004 618 q 981 618 958 573 q 863 389 834 114 q 845 135 864 170 q 869 181 877 181 q 886 181 886 168 q 886 163 883 155 q 861 104 843 9 q 839 -12 824 -12 q 808 -12 774 13 q 758 25 755 33 q 752 40 756 61 q 773 167 801 300 q 833 452 848 479 q 797 418 722 301 q 649 186 594 82 q 604 52 604 37 q 604 18 572 -12 q 555 -28 550 -28 q 544 -28 521 11 q 511 28 511 38 q 511 44 525 71 q 494 187 411 354 q 358 221 304 112 q 339 72 339 59 q 339 48 315 45 q 264 39 229 -8 q 226 -23 214 -23 q 198 -23 163 7 q 152 16 152 22 q 152 27 161 35 q 194 63 236 90 q 327 241 384 407 q 324 538 236 590 q 221 599 208 599 q 189 599 169 580 q 150 559 131 538 q 120 526 109 526 q 100 526 100 535 q 100 539 103 545 q 169 677 229 675 q 300 672 414 498 q 442 562 442 613 q 442 639 450 639 q 457 639 484 618 q 492 612 491 592 q 490 566 446 444 q 532 277 576 139 q 749 425 886 586 q 903 625 928 663 q 939 680 954 680 q 977 680 1035 633 z"},"g":{"x_min":0,"x_max":388,"ha":388,"o":"m 364 345 q 214 -433 -26 -432 q -112 -432 -213 -337 q -222 -328 -222 -319 q -222 -305 -209 -305 q -202 -305 -196 -310 q -116 -378 -53 -378 q 148 -378 282 213 q 201 73 140 12 q 116 -13 97 -13 q 79 -13 53 7 q 7 30 9 82 q 12 146 58 241 q 104 333 153 380 q 181 406 203 406 q 220 406 240 392 q 243 389 279 357 q 286 351 286 344 q 286 335 274 335 q 267 335 258 340 q 243 348 229 348 q 208 348 192 333 q 156 302 117 231 q 75 154 65 91 q 62 74 62 61 q 62 25 82 25 q 95 25 110 38 q 168 88 225 182 q 278 269 301 342 q 309 368 309 391 q 309 410 318 410 q 327 410 354 389 q 370 377 364 345 z"},"j":{"x_min":0,"x_max":190,"ha":190,"o":"m 242 546 q 250 540 250 533 q 250 519 208 489 q 179 469 154 475 q 138 479 129 486 q 126 489 124 492 q 123 495 124 497 q 125 499 130 498 q 152 510 188 554 q 198 567 204 567 q 212 567 242 546 z m 165 338 q 97 25 38 -130 q -78 -432 -228 -432 q -313 -432 -415 -337 q -424 -328 -424 -319 q -424 -305 -411 -305 q -404 -305 -398 -310 q -318 -378 -255 -378 q -53 -378 81 214 q 94 272 105 337 q 90 322 69 298 q 48 274 42 267 q 35 261 29 261 q 20 261 20 272 q 20 278 24 284 q 45 310 95 371 q 103 381 103 384 q 103 402 116 402 q 129 402 156 382 q 172 370 165 338 z"},"i":{"x_min":0,"x_max":190,"ha":190,"o":"m 227 546 q 235 540 235 533 q 235 519 193 489 q 165 470 139 475 q 125 478 114 486 q 110 489 109 492 q 107 495 108 497 q 109 499 114 498 q 159 537 173 554 q 184 567 189 567 q 198 567 227 546 z m 158 332 q 146 266 97 113 q 111 125 136 159 q 140 164 143 164 q 151 164 145 150 q 143 145 104 83 q 75 36 61 0 q 57 -11 45 -11 q 33 -11 13 0 q 0 7 0 10 q 0 13 6 23 q 32 69 64 178 q 95 284 99 335 q 101 357 95 357 q 90 357 79 346 l 49 318 q 33 303 33 316 q 33 320 37 326 q 60 358 86 387 q 94 396 101 396 q 109 396 124 385 q 146 379 149 377 q 160 371 160 352 q 160 343 158 332 z"},"y":{"x_min":0,"x_max":407,"ha":407,"o":"m 379 338 q 311 25 251 -130 q 136 -432 -13 -432 q -101 -432 -201 -337 q -210 -329 -210 -319 q -210 -305 -196 -305 q -189 -305 -183 -310 q -104 -378 -41 -378 q 74 -378 167 -187 q 241 -37 296 216 q 299 234 307 271 q 256 188 192 106 q 131 28 96 -1 q 77 -17 65 -17 q 56 -17 46 -7 q 36 6 25 19 q 20 25 20 30 q 20 30 20 31 q 21 37 29 39 q 52 71 73 176 q 88 259 94 334 q 95 352 90 352 q 88 352 67 334 q 33 305 30 305 q 23 305 23 312 q 23 315 26 319 q 34 329 63 370 q 89 407 98 407 q 104 407 116 401 q 141 405 144 405 q 161 405 161 379 q 161 337 136 213 q 112 89 96 53 q 145 92 223 205 q 299 314 318 370 q 319 403 332 403 q 342 403 370 382 q 386 370 379 338 z"},"@":{"x_min":0,"x_max":594,"ha":594,"o":"m 418 215 q 406 204 402 204 q 398 204 385 213 q 375 222 377 237 q 393 328 413 381 q 383 332 332 274 q 287 223 267 210 q 252 200 245 200 q 239 200 227 210 q 201 224 204 248 q 220 371 336 479 q 353 495 370 494 q 382 494 417 462 q 420 459 420 456 q 420 446 408 451 q 383 460 369 450 q 337 426 298 367 q 252 299 243 245 q 241 231 250 231 q 262 231 278 247 q 315 284 359 341 q 403 399 417 429 q 421 440 429 460 q 434 476 439 476 q 441 476 462 462 q 478 449 473 436 q 446 363 424 250 q 440 259 469 279 q 506 310 519 336 q 559 415 555 497 q 553 546 535 572 q 519 595 481 614 q 455 627 422 626 q 290 621 179 382 q 125 264 125 177 q 125 150 129 125 q 136 86 246 86 q 297 86 330 97 q 375 112 421 147 q 467 183 489 220 q 497 234 504 237 q 511 241 511 232 q 511 226 507 215 q 482 149 431 107 q 413 92 382 75 q 347 56 342 52 q 322 39 265 39 q 192 39 172 64 q 91 68 76 149 q 74 161 74 179 q 74 291 122 398 q 168 501 241 578 q 322 665 396 668 q 419 669 443 662 q 467 655 463 646 q 546 626 576 603 q 621 569 618 496 q 614 384 530 300 q 514 289 477 262 q 457 247 418 215 z"},".":{"x_min":0,"x_max":200,"ha":200,"o":"m 76 97 q 88 93 88 81 q 88 70 69 24 q 54 -12 35 -12 q 42 -12 0 -8 q -6 -7 -7 -2 q -9 3 -3 5 q 22 62 28 85 q 33 105 43 105 q 51 105 76 97 z"},"p":{"x_min":0,"x_max":412,"ha":412,"o":"m 395 301 q 389 218 352 124 q 316 35 282 3 q 263 -15 243 -15 q 220 -15 168 21 q 158 28 158 35 q 158 44 171 44 q 176 44 187 41 q 197 38 203 38 q 239 38 267 83 q 291 122 312 188 q 338 270 335 329 q 333 357 316 357 q 300 357 278 336 q 120 185 55 -26 q 19 -146 6 -248 q 6 -251 -7 -417 q -9 -441 -19 -441 q -29 -441 -55 -417 q -74 -399 -70 -374 q -48 -131 48 167 q 124 401 168 470 q 194 511 215 510 q 235 509 293 473 q 301 468 301 463 q 301 456 289 456 q 286 456 279 457 q 272 458 269 458 q 238 458 205 406 q 186 376 156 306 q 126 235 113 190 q 185 307 280 391 q 294 404 306 404 q 312 404 333 389 q 399 366 395 301 z"},"X":{"x_min":0,"x_max":642,"ha":642,"o":"m 670 642 q 685 625 685 609 q 685 585 644 540 q 603 494 420 353 q 459 165 500 100 q 530 53 551 53 q 560 53 594 70 q 601 73 607 73 q 620 73 620 64 q 620 59 612 52 q 530 -17 490 -17 q 430 -17 364 310 q 191 173 135 101 q 78 28 78 -10 q 78 -17 83 -30 q 86 -39 83 -41 q 74 -47 62 -32 q 49 -17 37 -1 q 24 16 24 33 q 24 56 45 83 q 112 169 356 355 q 334 471 324 574 q 281 551 238 528 q 180 494 160 468 q 148 453 148 434 q 148 416 164 382 q 166 378 166 375 q 166 363 155 363 q 149 363 143 371 q 90 441 90 476 q 90 505 125 531 q 156 554 218 578 q 288 604 317 621 q 321 652 365 678 q 379 686 388 686 q 398 686 408 663 q 411 656 411 650 q 411 637 389 621 q 388 610 388 595 q 388 524 411 397 q 539 496 575 535 q 533 549 533 566 q 533 570 538 574 q 542 573 558 579 q 601 610 624 651 q 634 667 639 667 q 648 667 670 642 z"},"*":{"x_min":0,"x_max":265,"ha":265,"o":"m 308 605 q 315 583 295 578 l 245 566 q 255 554 279 526 q 286 518 286 513 q 286 507 273 498 q 262 490 257 490 q 250 490 244 501 q 234 516 217 545 q 208 532 189 501 q 182 489 177 489 q 172 489 160 498 q 148 506 148 513 q 148 518 155 526 q 166 540 189 566 q 181 567 137 578 q 125 581 123 586 q 122 590 126 605 q 131 622 140 622 q 144 622 151 619 q 181 607 199 598 q 198 614 195 651 q 194 667 203 670 q 208 671 217 671 q 239 671 238 651 q 236 619 234 599 q 253 607 283 619 q 291 622 295 622 q 303 622 308 605 z"},"Y":{"x_min":0,"x_max":667,"ha":667,"o":"m 740 617 q 747 609 747 600 q 747 576 687 491 q 673 457 610 248 q 547 42 514 -39 q 493 -91 479 -110 q 462 -134 439 -134 q 406 -134 312 -67 q 301 -59 301 -52 q 301 -41 317 -41 q 323 -41 329 -43 q 381 -63 394 -63 q 421 -63 442 -26 q 532 137 601 384 q 508 221 399 109 q 370 79 351 79 q 335 79 314 101 q 258 135 249 147 q 232 167 234 223 q 237 329 333 566 q 216 522 161 480 q 135 460 135 441 q 135 439 151 388 q 152 385 152 383 q 152 375 144 375 q 130 375 119 392 q 74 463 74 493 q 74 531 127 549 q 222 578 365 628 q 387 666 407 666 q 428 666 468 630 q 475 624 475 619 q 475 608 431 598 q 373 517 332 385 q 297 270 297 199 q 297 129 334 129 q 353 129 371 148 q 544 322 673 591 q 686 641 705 641 q 719 641 740 617 z"},"c":{"x_min":0,"x_max":294,"ha":294,"o":"m 286 360 q 286 284 265 238 q 256 219 238 229 q 210 244 210 254 q 210 258 217 263 q 233 310 232 336 q 231 358 210 358 q 208 358 203 359 q 198 360 195 360 q 178 360 153 328 q 125 292 101 228 q 80 174 73 136 q 68 109 68 86 q 68 12 115 13 q 157 14 237 117 q 245 126 251 126 q 257 126 257 119 q 257 115 255 109 q 229 45 187 -3 q 177 -15 151 -15 q 135 -15 113 -9 q 68 -6 41 20 q 12 48 14 93 q 16 145 50 236 q 87 336 127 381 q 146 401 158 401 q 171 401 208 380 q 228 387 248 387 q 286 387 286 360 z"},"!":{"x_min":0,"x_max":240,"ha":240,"o":"m 305 624 q 212 464 139 208 q 132 186 140 172 q 142 169 142 167 q 142 162 134 162 q 124 162 109 173 q 87 188 87 202 q 87 208 90 219 q 117 336 171 486 q 213 606 231 639 q 245 666 257 666 q 259 666 271 662 q 321 648 321 635 q 321 626 305 624 z m 110 53 q 103 36 93 -12 q 89 -22 76 -16 q 40 0 40 22 q 40 28 43 43 q 46 60 50 77 q 54 92 63 92 q 67 92 71 90 q 113 73 113 63 q 113 59 110 53 z"},"/":{"x_min":0,"x_max":400,"ha":400,"o":"m 472 618 l 143 123 q 80 28 80 -9 q 80 -12 82 -17 q 83 -22 83 -26 q 83 -43 66 -43 q 57 -43 45 -35 l 17 -14 q 5 -5 5 9 q 5 22 17 40 l 351 541 q 402 618 402 657 q 402 661 400 667 q 398 674 398 678 q 398 692 411 692 q 415 692 419 690 l 468 670 q 481 661 481 648 q 481 636 472 618 z"},"[":{"x_min":0,"x_max":400,"ha":400,"o":"m 454 711 q 466 711 466 698 q 466 683 451 683 q 404 682 384 667 q 367 654 351 613 q 340 584 252 320 q 168 65 159 33 q 151 6 151 -10 q 151 -52 213 -52 q 228 -52 228 -67 q 228 -80 215 -80 q 134 -79 101 -81 q 93 -84 86 -84 q 66 -84 66 -61 q 66 -54 68 -47 q 75 -22 184 311 q 292 638 298 657 q 319 717 344 717 q 349 717 354 715 q 364 711 381 710 q 394 709 417 710 q 447 711 454 711 z"},"6":{"x_min":0,"x_max":451,"ha":451,"o":"m 425 292 q 412 222 361 136 q 314 56 265 13 q 234 -15 192 -15 q 166 -15 142 -4 q 30 6 30 73 q 30 228 90 387 q 141 522 217 622 q 287 714 330 715 q 361 716 418 673 q 425 667 425 661 q 425 650 413 653 q 386 659 347 649 q 317 641 258 562 q 192 472 148 361 q 95 225 95 94 q 95 35 135 24 q 143 22 152 22 q 184 22 217 47 q 256 76 305 165 q 354 253 365 316 q 367 329 367 337 q 367 362 349 362 q 339 362 314 354 q 253 334 198 301 q 194 298 189 298 q 173 298 173 312 q 173 319 180 324 q 238 369 302 396 q 321 404 336 404 q 361 404 383 374 q 416 361 419 359 q 430 351 430 333 q 430 320 425 292 z"},"r":{"x_min":0,"x_max":314,"ha":314,"o":"m 329 367 q 329 303 312 245 q 307 228 297 228 q 291 228 267 247 q 255 257 261 275 q 275 319 275 346 q 275 355 271 355 q 265 355 252 338 q 150 206 100 41 q 84 -11 73 -11 q 68 -11 34 6 q 18 14 23 38 q 62 207 106 323 q 70 285 60 271 q 56 265 49 265 q 41 265 41 272 q 41 277 45 282 q 69 311 109 370 q 121 392 133 392 q 142 392 169 378 q 184 370 174 357 q 163 343 133 257 q 105 173 94 126 q 161 274 245 387 q 261 409 271 409 q 280 409 295 397 q 315 395 321 391 q 329 385 329 367 z"},"2":{"x_min":0,"x_max":437,"ha":437,"o":"m 414 -59 q 411 -70 399 -72 q 391 -72 383 -59 q 381 -54 378 -48 q 373 -42 352 -35 q 221 6 108 6 q 91 6 74 5 q 66 -4 47 -24 q 39 -32 17 -27 q -4 -19 -3 -1 q 0 34 8 59 q 17 84 45 84 q 51 84 103 79 q 209 165 294 270 q 338 325 338 387 q 338 407 333 414 q 326 424 303 424 q 294 424 283 423 q 224 416 149 358 q 131 344 131 330 q 131 331 136 303 q 139 288 130 288 q 123 288 113 297 q 101 309 83 331 q 69 352 69 365 q 69 378 84 389 q 230 495 311 492 q 330 491 350 456 q 390 465 384 465 q 406 465 406 405 q 406 353 400 334 q 388 298 338 247 q 239 146 147 72 q 267 63 390 14 q 420 2 420 -26 q 420 -36 414 -59 z"},"{":{"x_min":0,"x_max":400,"ha":400,"o":"m 454 701 q 466 701 466 688 q 466 673 451 673 q 401 672 384 661 q 366 651 351 613 q 328 541 282 410 q 268 373 236 346 q 208 321 181 317 q 223 288 223 251 q 223 235 217 214 q 190 130 159 33 q 151 6 151 -10 q 151 -52 213 -52 q 228 -52 228 -67 q 228 -80 215 -80 q 147 -79 119 -65 q 86 -49 86 -11 q 86 8 94 33 q 114 83 170 240 q 173 249 173 256 q 173 291 119 319 q 113 322 113 330 q 113 347 126 346 q 156 344 184 359 q 216 375 226 406 q 255 509 287 622 q 308 692 360 701 q 360 701 454 701 z"},"9":{"x_min":0,"x_max":455,"ha":455,"o":"m 444 360 q 411 158 283 -65 q 155 -288 72 -293 q 31 -295 -29 -246 q -36 -240 -36 -232 q -36 -220 -21 -220 q -18 -220 -14 -221 q 33 -229 54 -221 q 140 -188 246 0 q 354 191 373 351 q 374 361 374 370 q 374 406 356 427 q 338 448 311 448 q 281 448 253 424 q 198 377 152 309 q 95 223 86 148 q 82 111 114 111 q 129 111 151 120 q 203 143 268 188 q 277 194 285 194 q 294 194 294 186 q 294 178 284 167 q 212 90 174 66 q 154 54 137 54 q 112 54 73 84 q 56 89 40 93 q 16 103 16 136 q 16 150 20 169 q 36 244 98 338 q 156 427 209 465 q 244 490 265 490 q 279 490 307 478 q 309 481 314 483 q 330 486 363 473 q 413 453 430 437 q 447 420 447 394 q 447 381 444 360 z"}," ":{"x_min":0,"x_max":180,"ha":180,"o":""},"I":{"x_min":0,"x_max":414,"ha":414,"o":"m 428 500 q 411 358 338 184 q 253 -22 173 -23 q 125 -23 55 29 q 50 33 50 40 q 50 57 65 57 q 69 57 73 55 q 115 34 145 33 q 210 31 288 226 q 363 414 368 563 q 370 611 320 611 q 312 611 303 610 q 265 604 217 549 q 163 488 141 409 q 138 399 138 390 q 138 372 150 356 q 162 345 173 334 q 178 329 178 324 q 178 315 164 315 q 158 315 154 317 q 112 342 96 357 q 78 376 78 401 q 78 424 95 464 q 121 523 171 580 q 219 634 257 650 q 274 658 329 641 q 333 646 339 646 q 358 646 414 609 q 439 593 428 500 z"},"H":{"x_min":0,"x_max":701,"ha":701,"o":"m 837 655 q 849 648 849 641 q 849 632 829 632 q 799 632 805 633 q 790 631 775 617 q 740 584 695 470 q 637 325 588 103 l 621 161 q 631 178 641 178 q 647 178 647 170 q 647 164 643 154 q 616 90 615 87 q 597 41 593 15 q 589 -14 578 -14 q 570 -14 533 6 q 523 11 523 42 q 523 101 558 251 q 375 262 284 246 q 263 192 223 106 q 183 20 166 -7 q 151 -31 129 -24 q 80 -8 80 7 q 80 15 87 30 q 100 51 116 88 q 117 92 117 124 q 117 139 126 139 q 132 139 150 119 q 162 105 160 96 q 189 130 215 203 q 189 257 189 271 q 189 304 258 302 q 282 355 318 454 q 355 558 365 598 q 358 588 288 563 q 199 533 170 519 q 118 493 118 461 q 118 447 125 424 q 126 421 126 418 q 126 408 116 408 q 107 408 102 416 q 90 436 79 470 q 66 508 67 527 q 69 564 174 587 q 244 602 313 617 q 359 630 378 658 q 389 674 393 674 q 400 674 421 658 q 429 652 429 639 q 429 613 381 487 q 358 432 305 299 q 438 286 571 296 q 603 414 643 516 q 708 680 758 683 q 788 685 837 655 z"},"4":{"x_min":0,"x_max":463,"ha":463,"o":"m 420 62 q 423 48 423 44 q 423 28 393 23 q 361 18 318 18 q 303 -53 298 -116 q 297 -131 299 -135 q 302 -139 305 -142 q 307 -145 307 -147 q 307 -162 292 -162 q 288 -162 285 -161 q 267 -154 241 -139 q 232 -129 232 -118 q 232 -105 262 17 q 113 13 39 19 q 34 6 30 3 q 26 1 9 4 q -3 6 -7 14 q -12 24 -13 56 q -14 83 8 88 q 45 122 78 158 q 156 244 196 327 q 196 327 168 371 q 166 375 166 377 q 166 391 186 388 q 193 387 205 405 q 229 440 263 497 q 270 510 282 510 q 290 510 320 495 q 331 489 331 480 q 331 473 324 456 q 288 368 205 250 q 135 150 80 96 q 73 87 91 85 q 203 71 279 79 q 315 216 356 308 q 368 335 382 340 q 385 341 408 341 q 423 341 423 336 q 423 333 414 323 q 396 305 370 227 q 347 158 331 84 q 376 84 386 105 q 387 110 397 115 q 408 115 411 105 q 416 83 420 62 z"},"~":{"x_min":0,"x_max":450,"ha":450,"o":"m 436 373 q 414 346 380 314 q 343 278 335 281 q 303 287 251 347 q 219 377 192 381 q 176 385 118 324 q 118 310 109 310 q 101 310 92 320 q 78 337 78 341 q 78 346 81 350 q 103 377 137 411 q 175 447 184 445 q 212 439 267 376 q 290 355 305 349 q 315 345 325 342 q 347 339 399 401 q 400 415 411 415 q 419 415 427 405 q 441 388 441 384 q 441 379 436 373 z"},"D":{"x_min":0,"x_max":640,"ha":640,"o":"m 674 524 q 659 411 601 279 q 548 160 483 74 q 419 -11 380 -11 q 332 -11 242 49 q 235 54 235 60 q 235 76 253 76 q 258 76 263 73 q 300 50 344 48 q 405 45 500 227 q 595 407 610 548 q 615 593 561 615 q 548 620 539 619 q 445 606 357 551 q 311 441 264 292 q 213 129 190 10 q 185 -15 169 -15 q 164 -15 156 -11 q 130 2 123 10 q 112 21 112 41 q 112 82 125 139 q 128 153 135 153 q 142 153 169 131 q 235 357 295 518 q 186 450 127 386 q 113 371 113 351 q 113 333 125 310 q 137 287 137 284 q 137 275 125 275 q 116 275 111 281 q 50 353 50 380 q 50 409 89 444 q 171 519 328 609 q 354 669 366 669 q 375 669 402 643 q 429 655 456 667 q 478 677 492 677 q 516 677 555 651 q 557 653 562 653 q 589 653 645 602 q 675 574 675 542 q 675 534 674 524 z"},"^":{"x_min":0,"x_max":450,"ha":450,"o":"m 408 302 q 428 296 428 290 q 428 282 402 272 q 372 260 364 260 q 350 260 336 282 q 313 317 280 392 q 278 398 255 384 q 193 337 108 277 q 83 262 77 262 q 70 262 66 277 q 63 289 63 295 q 63 308 87 312 q 101 313 168 358 q 225 397 255 421 q 267 431 274 448 q 280 461 297 467 q 313 473 317 472 q 323 472 324 463 q 335 417 361 367 q 388 315 408 302 z"},"0":{"x_min":0,"x_max":423,"ha":423,"o":"m 410 419 q 410 264 355 127 q 296 -19 220 -19 q 160 -19 107 4 q 86 13 89 20 q 53 43 43 56 q 27 76 27 113 q 27 135 32 169 q 43 245 90 343 q 136 436 176 474 q 195 492 212 492 q 219 492 275 466 q 283 467 313 471 q 338 474 352 474 q 410 474 410 419 z m 346 383 q 346 438 299 438 q 287 438 258 434 q 244 439 240 438 q 235 438 204 409 q 157 365 123 270 q 90 177 90 100 q 90 75 110 53 q 129 32 156 22 q 170 17 182 17 q 214 17 248 54 q 288 98 317 197 q 346 295 346 383 z"},"F":{"x_min":0,"x_max":600,"ha":600,"o":"m 693 623 q 694 619 694 615 q 694 601 677 596 q 676 596 642 591 q 566 580 456 571 q 427 509 373 319 q 465 327 560 329 q 588 330 598 311 q 600 307 605 279 q 606 275 606 272 q 606 255 568 249 q 541 244 535 245 q 526 245 521 254 q 514 267 495 267 q 389 267 356 263 q 338 218 294 21 q 286 -16 270 -16 q 260 -16 228 -5 q 209 1 214 38 q 221 85 233 129 q 239 149 273 143 q 284 168 300 224 q 279 277 279 278 q 279 281 280 284 q 283 300 328 310 q 331 318 408 565 q 331 559 257 542 q 174 522 147 498 q 119 473 119 447 q 119 419 151 359 q 154 353 154 347 q 154 335 143 335 q 135 335 129 344 q 90 399 79 430 q 70 452 67 492 q 62 552 164 580 q 298 617 436 629 q 452 661 459 661 q 471 661 498 636 q 511 636 577 646 q 588 648 601 663 q 611 677 652 679 q 674 680 683 663 q 684 660 693 623 z"},"`":{"x_min":0,"x_max":300,"ha":300,"o":"m 283 492 q 285 489 285 485 q 285 475 274 475 q 268 475 261 483 q 227 526 188 556 q 168 572 155 572 q 135 572 135 585 q 135 588 139 590 l 167 603 q 176 607 183 607 q 196 607 211 591 q 262 538 283 492 z"},"k":{"x_min":0,"x_max":387,"ha":387,"o":"m 455 -52 q 410 -122 382 -122 q 348 -122 284 -31 q 220 61 175 175 q 117 103 94 7 q 89 -15 82 -15 q 79 -15 70 -11 q 29 6 29 24 q 29 27 35 57 q 91 367 182 587 q 249 751 303 801 q 317 814 330 814 q 344 814 365 798 q 390 778 414 758 q 421 753 421 747 q 421 738 410 738 q 404 738 399 741 q 376 752 365 752 q 334 752 298 693 q 167 479 109 134 q 121 158 162 225 q 157 242 157 245 q 157 257 190 263 q 256 360 299 393 q 314 405 322 405 q 331 405 353 381 q 388 367 388 346 q 388 339 386 328 q 377 288 360 257 q 351 241 341 241 q 334 241 320 246 q 292 256 292 266 q 292 272 301 276 q 321 293 326 345 q 327 357 320 357 q 315 357 308 352 q 254 313 216 239 q 290 10 385 -48 q 396 -55 409 -55 q 426 -55 436 -44 q 445 -34 452 -34 q 459 -34 459 -42 q 459 -46 455 -52 z"},"u":{"x_min":0,"x_max":397,"ha":397,"o":"m 393 354 q 328 233 296 71 q 310 95 329 132 q 332 139 337 139 q 344 139 344 129 q 344 126 343 123 q 312 52 302 13 q 296 -11 286 -11 q 276 -11 248 8 q 233 19 238 46 q 258 152 287 231 q 193 78 129 5 q 115 -11 98 -11 q 84 -11 66 0 q 32 6 32 35 q 32 41 33 47 q 45 187 84 279 q 76 271 59 256 q 53 250 49 253 q 45 256 51 264 q 77 303 82 315 q 97 353 114 374 q 123 385 132 385 q 146 385 171 369 q 178 365 178 360 q 178 360 167 344 q 143 307 115 213 q 85 112 85 48 q 85 27 94 27 q 102 27 119 45 q 157 85 228 196 q 291 294 304 324 q 326 374 340 383 q 349 389 355 389 q 362 389 382 378 q 401 368 401 363 q 401 362 398 359 q 395 357 393 354 z"},"]":{"x_min":0,"x_max":400,"ha":400,"o":"m 399 684 q 391 657 282 326 q 174 -5 168 -21 q 146 -81 123 -81 q 118 -81 113 -79 q 104 -75 86 -74 q 73 -73 50 -74 q 21 -75 13 -75 q 0 -75 0 -61 q 0 -46 15 -46 q 62 -45 83 -30 q 100 -17 116 24 q 127 52 214 316 q 298 572 308 604 q 315 630 315 646 q 315 688 253 688 q 239 688 239 703 q 239 716 251 716 q 318 713 366 717 q 374 720 380 720 q 401 720 401 696 q 401 690 399 684 z"},"U":{"x_min":0,"x_max":749,"ha":749,"o":"m 863 617 q 867 614 867 610 q 867 600 852 600 q 848 600 840 602 q 833 603 829 603 q 807 603 784 560 q 681 365 645 105 q 652 126 661 139 q 669 150 677 161 q 683 171 690 171 q 699 171 699 160 q 699 153 695 145 q 663 75 651 6 q 646 -21 630 -21 q 613 -21 581 6 q 561 23 561 29 q 561 31 563 38 q 565 44 566 52 q 580 158 624 321 q 518 126 425 21 q 396 -11 365 -11 q 333 -11 312 18 q 261 58 252 71 q 233 96 233 146 q 233 158 234 171 q 238 243 275 362 q 312 479 361 574 q 226 530 170 490 q 144 471 144 451 q 144 452 157 399 q 158 396 158 394 q 158 385 149 385 q 135 385 125 403 q 83 474 83 503 q 83 544 139 561 q 234 586 379 631 q 402 667 421 667 q 443 667 483 629 q 489 624 489 619 q 489 609 443 599 q 384 502 340 351 q 302 219 299 135 q 297 92 316 66 q 333 43 360 43 q 385 43 405 66 q 491 167 571 304 q 627 400 713 575 q 733 616 757 651 q 768 667 782 667 q 806 667 863 617 z"},"o":{"x_min":0,"x_max":348,"ha":348,"o":"m 334 309 q 333 266 313 194 q 281 81 223 18 q 192 -15 155 -15 q 140 -15 117 -9 q 71 -6 42 20 q 11 48 13 93 q 15 145 49 237 q 86 338 126 383 q 145 404 157 404 q 174 404 211 370 q 221 375 253 388 q 269 394 277 394 q 296 394 320 358 q 335 336 334 309 z m 278 295 q 281 328 281 336 q 281 357 269 357 q 264 357 256 355 l 180 324 q 167 319 165 319 q 161 319 157 328 q 129 293 104 228 q 85 177 78 136 q 73 109 73 86 q 73 11 119 13 q 138 14 159 28 q 200 56 236 139 q 270 218 278 295 z"},"N":{"x_min":0,"x_max":699,"ha":699,"o":"m 776 633 q 783 625 783 616 q 783 599 757 568 q 737 548 718 527 q 678 415 645 286 q 605 134 604 63 q 612 41 612 33 q 612 13 576 -11 q 569 -16 563 -16 q 555 -16 547 -7 q 542 -1 538 4 q 531 9 538 46 q 495 159 417 305 q 351 430 322 466 q 302 401 249 267 q 221 195 193 124 q 206 129 234 74 q 237 69 237 65 q 237 57 223 57 q 232 57 199 57 q 169 57 148 36 q 148 36 136 8 q 127 -12 111 -12 q 104 -12 96 -9 q 46 11 47 31 q 48 56 124 102 q 164 174 226 333 q 276 460 291 511 q 257 566 221 586 q 208 593 197 593 q 176 593 141 567 q 132 560 123 560 q 112 560 112 570 q 112 579 122 589 q 176 641 188 650 q 216 672 235 670 q 265 667 313 599 q 323 625 319 638 q 318 641 318 643 q 318 649 324 649 q 333 649 352 633 q 362 625 362 610 q 362 598 355 579 q 350 564 345 550 q 412 457 482 328 q 547 209 570 145 q 587 256 653 511 q 641 519 622 535 q 614 544 614 550 q 614 558 631 557 q 647 556 714 640 q 729 659 739 659 q 753 659 776 633 z"},"+":{"x_min":0,"x_max":424,"ha":424,"o":"m 255 256 q 267 256 316 255 q 361 254 366 264 q 370 271 377 270 q 385 270 385 262 q 385 255 378 236 q 371 218 367 214 q 359 208 340 209 q 284 213 244 214 q 241 203 230 148 q 223 112 222 105 q 221 96 227 92 q 230 88 229 81 q 227 74 221 74 q 219 74 217 75 q 211 78 186 89 q 172 94 172 109 q 172 118 179 139 q 191 175 201 215 q 181 216 140 216 q 90 216 85 207 q 82 201 73 203 q 65 205 67 213 q 69 219 74 247 q 78 269 121 264 q 165 260 212 258 q 218 280 228 327 q 237 373 230 378 q 224 383 226 391 q 228 398 235 397 q 237 396 259 384 q 280 371 280 359 q 280 353 277 342 q 268 308 255 256 z"},"G":{"x_min":0,"x_max":604,"ha":604,"o":"m 591 337 q 605 331 605 320 q 605 307 586 304 q 552 299 544 286 q 540 279 529 229 q 487 40 434 -93 q 417 -135 386 -135 q 359 -135 282 -86 q 274 -81 274 -75 q 274 -64 289 -64 q 294 -64 307 -69 q 319 -74 328 -74 q 353 -74 374 -43 q 424 32 481 242 q 421 173 346 115 q 246 38 183 38 q 147 38 124 64 q 85 87 70 106 q 48 134 50 173 q 56 278 129 401 q 192 507 280 589 q 365 668 414 671 q 439 672 490 635 q 494 661 504 661 q 514 661 539 649 q 548 645 550 639 q 553 629 548 594 q 541 537 519 484 q 513 469 498 469 q 489 469 462 475 q 445 479 445 489 q 445 498 455 498 q 457 498 459 497 q 478 543 482 596 q 484 617 458 617 q 434 617 402 600 q 310 550 220 425 q 131 299 115 193 q 112 176 112 163 q 112 114 152 88 q 163 81 178 81 q 234 81 337 167 q 416 230 471 296 q 371 288 360 288 q 334 288 324 296 q 316 303 308 326 q 305 334 305 338 q 305 344 311 344 q 311 344 342 334 q 355 330 420 333 q 481 335 503 339 q 513 357 529 357 q 546 357 591 337 z"},"q":{"x_min":0,"x_max":358,"ha":358,"o":"m 352 369 q 360 361 360 351 q 360 342 337 288 q 305 213 264 61 q 231 -58 219 -123 q 245 -74 264 -48 q 270 -41 278 -41 q 290 -41 290 -51 q 290 -56 287 -61 q 200 -212 189 -402 q 187 -447 178 -447 q 169 -447 133 -411 q 120 -398 120 -378 q 120 -374 129 -312 q 145 -204 184 -45 q 216 86 232 132 q 184 49 116 -6 q 107 -13 96 -13 q 80 -13 63 1 q 30 12 18 24 q 2 39 3 67 q 6 140 50 232 q 91 319 138 365 q 169 395 195 395 q 221 395 277 344 q 284 338 284 333 q 284 327 274 327 q 269 327 262 329 q 231 341 219 341 q 192 341 163 305 q 125 259 96 195 q 58 116 58 57 q 58 23 81 23 q 95 23 112 39 q 163 88 217 176 q 254 237 275 286 q 295 332 302 361 q 303 371 304 380 q 306 393 313 393 q 325 394 352 369 z"},"d":{"x_min":0,"x_max":402,"ha":402,"o":"m 623 758 q 629 753 629 748 q 629 739 617 739 q 613 739 608 741 q 585 752 574 752 q 543 752 507 693 q 373 474 311 109 q 324 121 345 147 q 358 162 364 162 q 377 162 366 147 q 319 82 304 7 q 298 -11 290 -11 q 285 -11 279 -7 q 254 10 251 13 q 242 22 242 38 q 242 46 244 57 q 265 170 279 225 q 231 156 171 88 q 110 19 83 1 q 62 -13 52 -13 q 43 -13 25 1 q -7 21 -7 46 q -7 51 -6 56 q 4 129 59 225 q 114 321 185 386 q 208 408 226 407 q 245 406 294 361 q 298 357 298 353 q 298 345 288 345 q 285 345 281 346 q 247 361 225 345 q 179 311 124 227 q 60 129 49 51 q 46 32 59 32 q 75 32 98 55 q 152 108 215 189 q 279 272 297 315 q 307 338 313 360 q 364 540 426 667 q 475 767 512 801 q 526 814 539 814 q 552 814 574 798 q 598 778 623 758 z"},"1":{"x_min":0,"x_max":252,"ha":252,"o":"m 287 469 q 296 463 296 456 q 296 443 271 441 q 226 381 189 278 q 151 169 139 61 q 136 30 145 14 q 148 8 148 2 q 148 -13 133 -13 q 126 -13 115 -8 q 83 6 78 10 q 66 19 66 38 q 66 51 72 79 q 106 245 156 344 q 108 291 42 223 q 36 218 27 218 q 11 218 11 232 q 11 239 19 246 q 107 316 182 452 q 189 465 193 467 q 197 469 209 465 q 221 490 238 490 q 255 490 287 469 z"},"5":{"x_min":0,"x_max":435,"ha":435,"o":"m 410 425 q 410 404 389 404 q 383 404 376 406 q 233 436 172 436 q 156 436 151 425 q 99 301 86 251 q 87 249 89 246 q 93 246 103 252 q 231 322 279 322 q 316 322 331 284 q 368 269 380 258 q 396 244 396 222 q 396 207 389 183 q 356 80 271 -30 q 198 -123 112 -193 q 31 -258 -8 -262 q -27 -264 -44 -249 q -82 -215 -94 -196 q -98 -189 -98 -184 q -98 -170 -85 -170 q -81 -170 -76 -173 q -47 -191 -25 -191 q 8 -191 83 -133 q 163 -71 228 11 q 304 107 327 193 q 331 208 331 219 q 331 262 286 262 q 273 262 258 258 q 189 239 106 177 q 104 176 97 164 q 89 151 83 151 q 78 151 73 157 q 53 181 37 221 q 31 237 41 258 q 93 361 104 429 q 104 431 94 451 q 85 471 85 482 q 85 486 87 492 q 94 509 138 502 q 264 481 359 481 q 372 507 384 507 q 395 506 399 504 q 402 502 404 492 q 410 454 410 425 z"}}}
